<svg xmlns="http://www.w3.org/2000/svg" width="800" height="160" viewBox="0 0 800 160" role="img" aria-labelledby="title desc">
  <title id="title">bookmarkdown</title>
  <desc id="desc">A BMD bookmark symbol with an emphasized central M and a custom geometric lowercase bookmarkdown wordmark.</desc>
  <g><path fill="#C6EF8D" d="M42 18h76a18 18 0 0 1 18 18v106l-56-28-56 28V36a18 18 0 0 1 18-18Z"/><path fill="#15251D" fill-rule="evenodd" d="M34 54h10c8 0 12 4 12 10 0 4-2 7-5 9 5 2 7 5 7 10 0 7-5 11-13 11H34ZM41 61v9h3c3 0 5-2 5-5s-2-4-5-4ZM41 77v10h4c4 0 6-2 6-5s-2-5-6-5ZM62 42h10l9 17 9-17h10v52H89V65L81 80 73 65v29H62ZM105 54h7c11 0 17 8 17 20s-6 20-17 20h-7ZM112 61v26h1c7 0 10-5 10-13s-3-13-10-13Z"/></g>
  <g fill="none" stroke="#15251D" stroke-width="7" stroke-linecap="round" stroke-linejoin="round">
    <path transform="translate(200 55)" d="M4 4v52M4 39c0-10 6-17 16-17s16 7 16 17-6 17-16 17S4 49 4 39"/>
    <path transform="translate(246 55)" d="M4 39c0-10 6-17 16-17s16 7 16 17-6 17-16 17S4 49 4 39Z"/>
    <path transform="translate(292 55)" d="M4 39c0-10 6-17 16-17s16 7 16 17-6 17-16 17S4 49 4 39Z"/>
    <path transform="translate(338 55)" d="M4 4v52M34 23 5 42m12-8 19 22"/>
    <path transform="translate(384 55)" d="M4 56V23m0 15c0-10 4-16 12-16s12 6 12 16v18m0-18c0-10 4-16 12-16s12 6 12 16v18"/>
    <path transform="translate(448 55)" d="M36 23v33M4 39c0-10 6-17 16-17s16 7 16 17-6 17-16 17S4 49 4 39Z"/>
    <path transform="translate(494 55)" d="M4 56V23m0 16c0-12 7-19 19-16"/>
    <path transform="translate(530 55)" d="M4 4v52M34 23 5 42m12-8 19 22"/>
    <path transform="translate(576 55)" d="M36 4v52M4 39c0-10 6-17 16-17s16 7 16 17-6 17-16 17S4 49 4 39Z"/>
    <path transform="translate(622 55)" d="M4 39c0-10 6-17 16-17s16 7 16 17-6 17-16 17S4 49 4 39Z"/>
    <path transform="translate(668 55)" d="M4 23 15 56 28 30 41 56 52 23"/>
    <path transform="translate(732 55)" d="M4 56V23m0 15c0-10 6-16 16-16s16 6 16 16v18"/>
  </g>
</svg>
