<svg xmlns="http://www.w3.org/2000/svg" width="192" height="224" viewBox="0 0 192 224" role="img" aria-labelledby="title desc"><title id="title">bookmarkdown · M bookmark</title><desc id="desc">Rounded M on a bookmark with a orbit curved background pattern.</desc><defs><clipPath id="bookmark"><path d="M44 16h104a20 20 0 0 1 20 20v172l-72-40-72 40V36a20 20 0 0 1 20-20Z"/></clipPath></defs><path fill="#F5EEE2" stroke="#D6CABB" stroke-width="1.5" d="M44 16h104a20 20 0 0 1 20 20v172l-72-40-72 40V36a20 20 0 0 1 20-20Z"/><g clip-path="url(#bookmark)" fill="none" stroke="#D6CABB" stroke-width="2.1" stroke-linecap="round"><circle cx="202" cy="216" r="74"/><circle cx="202" cy="216" r="88"/><circle cx="202" cy="216" r="102"/><circle cx="202" cy="216" r="116"/><circle cx="-16" cy="-22" r="69"/><circle cx="-16" cy="-22" r="83"/><circle cx="-16" cy="-22" r="97"/><circle cx="-16" cy="-22" r="111"/></g><path d="M64 132V65q0-7 5-7 4 0 7 6l17 34q3 6 6 0l17-34q3-6 7-6 5 0 5 7v67" fill="none" stroke="#F5EEE2" stroke-width="30" stroke-linecap="round" stroke-linejoin="round"/><path d="M64 132V65q0-7 5-7 4 0 7 6l17 34q3 6 6 0l17-34q3-6 7-6 5 0 5 7v67" fill="none" stroke="#2B2520" stroke-width="13" stroke-linecap="round" stroke-linejoin="round"/></svg>
